<mxfile host="app.diagrams.net" agent="Mozilla/5.0 (Macintosh; Intel Mac OS X 10_15_7) AppleWebKit/605.1.15 (KHTML, like Gecko) Version/17.5 Safari/605.1.15" version="26.0.16">
  <diagram name="Страница — 1" id="UKhEU0GEm0EPO_8jrjUq">
    <mxGraphModel dx="1588" dy="1048" grid="0" gridSize="10" guides="1" tooltips="1" connect="1" arrows="1" fold="1" page="1" pageScale="1" pageWidth="1920" pageHeight="1200" math="0" shadow="0">
      <root>
        <mxCell id="0" />
        <mxCell id="1" parent="0" />
        <mxCell id="Ig1tpox1NIaQ3p_4JrHx-435" value="" style="image;html=1;image=img/lib/clip_art/networking/Email_128x128.png;sketch=0;fontSize=15;fillColor=none;" vertex="1" parent="1">
          <mxGeometry x="1465" y="434" width="52" height="43" as="geometry" />
        </mxCell>
        <mxCell id="Ig1tpox1NIaQ3p_4JrHx-437" value="" style="shape=image;verticalLabelPosition=bottom;labelBackgroundColor=default;verticalAlign=top;aspect=fixed;imageAspect=0;image=https://www.opc-router.de/wp-content/uploads/2021/03/mongodb_thumbnail.png;" vertex="1" parent="1">
          <mxGeometry x="1463.12" y="752" width="55.76" height="75" as="geometry" />
        </mxCell>
        <mxCell id="Ig1tpox1NIaQ3p_4JrHx-439" value="" style="shape=cylinder3;whiteSpace=wrap;html=1;boundedLbl=1;backgroundOutline=1;size=15;" vertex="1" parent="1">
          <mxGeometry x="1635" y="532" width="121" height="119" as="geometry" />
        </mxCell>
        <mxCell id="Ig1tpox1NIaQ3p_4JrHx-440" value="" style="shape=image;verticalLabelPosition=bottom;labelBackgroundColor=default;verticalAlign=top;aspect=fixed;imageAspect=0;image=https://avatars.githubusercontent.com/u/11860887?s=280&amp;v=4;" vertex="1" parent="1">
          <mxGeometry x="1666" y="570.9499999999999" width="63" height="63" as="geometry" />
        </mxCell>
        <mxCell id="Ig1tpox1NIaQ3p_4JrHx-445" value="Config server" style="rounded=1;whiteSpace=wrap;html=1;fontSize=18;fontStyle=1" vertex="1" parent="1">
          <mxGeometry x="1111" y="1028" width="141" height="57" as="geometry" />
        </mxCell>
        <mxCell id="Ig1tpox1NIaQ3p_4JrHx-444" value="Eureka server" style="rounded=1;whiteSpace=wrap;html=1;fontSize=18;fontStyle=1" vertex="1" parent="1">
          <mxGeometry x="772" y="1024" width="145" height="54" as="geometry" />
        </mxCell>
        <mxCell id="Ig1tpox1NIaQ3p_4JrHx-469" value="Microservice Eccomerce" style="text;html=1;align=center;verticalAlign=middle;whiteSpace=wrap;rounded=0;fontSize=24;" vertex="1" parent="1">
          <mxGeometry x="850" y="161" width="298" height="40" as="geometry" />
        </mxCell>
        <mxCell id="Ig1tpox1NIaQ3p_4JrHx-471" style="edgeStyle=orthogonalEdgeStyle;rounded=0;orthogonalLoop=1;jettySize=auto;html=1;exitX=0.5;exitY=1;exitDx=0;exitDy=0;" edge="1" parent="1" source="Ig1tpox1NIaQ3p_4JrHx-444" target="Ig1tpox1NIaQ3p_4JrHx-444">
          <mxGeometry relative="1" as="geometry" />
        </mxCell>
        <mxCell id="Ig1tpox1NIaQ3p_4JrHx-552" value="" style="rounded=0;whiteSpace=wrap;html=1;fillColor=none;strokeWidth=3;" vertex="1" parent="1">
          <mxGeometry x="458.38" y="205" width="1109.62" height="769" as="geometry" />
        </mxCell>
        <mxCell id="Ig1tpox1NIaQ3p_4JrHx-671" value="" style="shape=image;verticalLabelPosition=bottom;labelBackgroundColor=default;verticalAlign=top;aspect=fixed;imageAspect=0;image=https://images.ctfassets.net/gt6dp23g0g38/5DqlQtFKecFlkqQ8YGDT2p/aa945b648f44dd872e9a1b89f7d203ef/springboot.png;" vertex="1" parent="1">
          <mxGeometry x="756.06" y="508.8" width="30" height="26.95" as="geometry" />
        </mxCell>
        <mxCell id="Ig1tpox1NIaQ3p_4JrHx-692" value="" style="endArrow=classic;html=1;rounded=0;entryX=0;entryY=0.5;entryDx=0;entryDy=0;entryPerimeter=0;strokeColor=#6F0000;strokeWidth=3;align=center;verticalAlign=middle;fontFamily=Helvetica;fontSize=11;fontColor=default;labelBackgroundColor=default;flowAnimation=1;fillColor=#a20025;exitX=1;exitY=0.5;exitDx=0;exitDy=0;" edge="1" parent="1" source="Ig1tpox1NIaQ3p_4JrHx-552" target="Ig1tpox1NIaQ3p_4JrHx-439">
          <mxGeometry width="50" height="50" relative="1" as="geometry">
            <mxPoint x="1697" y="595.25" as="sourcePoint" />
            <mxPoint x="1554" y="408" as="targetPoint" />
          </mxGeometry>
        </mxCell>
        <mxCell id="Ig1tpox1NIaQ3p_4JrHx-714" value="Image" style="shape=ext;double=1;rounded=1;whiteSpace=wrap;html=1;dashed=1;dashPattern=1 1;glass=0;sketch=1;curveFitting=1;jiggle=2;" vertex="1" parent="1">
          <mxGeometry x="576" y="255" width="120" height="80" as="geometry" />
        </mxCell>
        <mxCell id="Ig1tpox1NIaQ3p_4JrHx-715" value="Product" style="shape=ext;double=1;rounded=1;whiteSpace=wrap;html=1;dashed=1;dashPattern=1 1;glass=0;sketch=1;curveFitting=1;jiggle=2;gradientColor=none;fillColor=none;" vertex="1" parent="1">
          <mxGeometry x="752" y="498.82000000000005" width="120" height="80" as="geometry" />
        </mxCell>
        <mxCell id="Ig1tpox1NIaQ3p_4JrHx-717" value="Order" style="shape=ext;double=1;rounded=1;whiteSpace=wrap;html=1;dashed=1;dashPattern=1 1;glass=0;sketch=1;curveFitting=1;jiggle=2;" vertex="1" parent="1">
          <mxGeometry x="752" y="680" width="120" height="80" as="geometry" />
        </mxCell>
        <mxCell id="Ig1tpox1NIaQ3p_4JrHx-718" value="Customer" style="shape=ext;double=1;rounded=1;whiteSpace=wrap;html=1;dashed=1;dashPattern=1 1;glass=0;sketch=1;curveFitting=1;jiggle=2;" vertex="1" parent="1">
          <mxGeometry x="567" y="818" width="120" height="80" as="geometry" />
        </mxCell>
        <mxCell id="Ig1tpox1NIaQ3p_4JrHx-719" value="Payment" style="shape=ext;double=1;rounded=1;whiteSpace=wrap;html=1;dashed=1;dashPattern=1 1;glass=0;sketch=1;curveFitting=1;jiggle=2;" vertex="1" parent="1">
          <mxGeometry x="1143" y="574.75" width="120" height="80" as="geometry" />
        </mxCell>
        <mxCell id="Ig1tpox1NIaQ3p_4JrHx-720" value="Notification" style="shape=ext;double=1;rounded=1;whiteSpace=wrap;html=1;dashed=1;dashPattern=1 1;glass=0;sketch=1;curveFitting=1;jiggle=2;" vertex="1" parent="1">
          <mxGeometry x="1431" y="574.75" width="120" height="80" as="geometry" />
        </mxCell>
        <mxCell id="Ig1tpox1NIaQ3p_4JrHx-723" value="Message Broker" style="shape=cylinder3;whiteSpace=wrap;html=1;boundedLbl=1;backgroundOutline=1;size=15;rotation=90;horizontal=0;verticalAlign=top;" vertex="1" parent="1">
          <mxGeometry x="610" y="368" width="52" height="139" as="geometry" />
        </mxCell>
        <mxCell id="Ig1tpox1NIaQ3p_4JrHx-745" value="" style="group" vertex="1" connectable="0" parent="1">
          <mxGeometry x="955" y="295" width="72" height="57.64999999999998" as="geometry" />
        </mxCell>
        <mxCell id="Ig1tpox1NIaQ3p_4JrHx-746" value="" style="shape=image;verticalLabelPosition=bottom;labelBackgroundColor=default;verticalAlign=top;aspect=fixed;imageAspect=0;image=https://upload.wikimedia.org/wikipedia/commons/thumb/b/ba/Database-postgres.svg/1448px-Database-postgres.svg.png;container=0;" vertex="1" parent="Ig1tpox1NIaQ3p_4JrHx-745">
          <mxGeometry x="15.99735211811253" width="36.12264788188748" height="51.04120428447361" as="geometry" />
        </mxCell>
        <mxCell id="Ig1tpox1NIaQ3p_4JrHx-747" value="" style="sketch=0;aspect=fixed;html=1;points=[];align=center;image;fontSize=12;image=img/lib/mscae/Docker.svg;fillColor=none;container=0;" vertex="1" parent="Ig1tpox1NIaQ3p_4JrHx-745">
          <mxGeometry y="36.67969348659003" width="25.571745633503813" height="20.968831419473126" as="geometry" />
        </mxCell>
        <mxCell id="Ig1tpox1NIaQ3p_4JrHx-823" value="" style="rounded=0;whiteSpace=wrap;html=1;fillColor=none;" vertex="1" parent="Ig1tpox1NIaQ3p_4JrHx-745">
          <mxGeometry x="-12" y="-56.35000000000002" width="84" height="114" as="geometry" />
        </mxCell>
        <mxCell id="Ig1tpox1NIaQ3p_4JrHx-787" value="CLOUD" style="rounded=1;whiteSpace=wrap;html=1;fontSize=17;fontFamily=Courier New;fillStyle=dashed;fillColor=#FFFF00;gradientColor=#FFB366;" vertex="1" parent="Ig1tpox1NIaQ3p_4JrHx-745">
          <mxGeometry x="-1.9400000000000546" y="-53" width="72" height="43.35" as="geometry" />
        </mxCell>
        <mxCell id="Ig1tpox1NIaQ3p_4JrHx-751" value="" style="group" vertex="1" connectable="0" parent="1">
          <mxGeometry x="1174" y="400.35" width="50.120000000000005" height="57.64852490606316" as="geometry" />
        </mxCell>
        <mxCell id="Ig1tpox1NIaQ3p_4JrHx-752" value="" style="shape=image;verticalLabelPosition=bottom;labelBackgroundColor=default;verticalAlign=top;aspect=fixed;imageAspect=0;image=https://upload.wikimedia.org/wikipedia/commons/thumb/b/ba/Database-postgres.svg/1448px-Database-postgres.svg.png;container=0;" vertex="1" parent="Ig1tpox1NIaQ3p_4JrHx-751">
          <mxGeometry x="15.99735211811253" width="36.12264788188748" height="51.04120428447361" as="geometry" />
        </mxCell>
        <mxCell id="Ig1tpox1NIaQ3p_4JrHx-753" value="" style="sketch=0;aspect=fixed;html=1;points=[];align=center;image;fontSize=12;image=img/lib/mscae/Docker.svg;fillColor=none;container=0;" vertex="1" parent="Ig1tpox1NIaQ3p_4JrHx-751">
          <mxGeometry y="36.67969348659003" width="25.571745633503813" height="20.968831419473126" as="geometry" />
        </mxCell>
        <mxCell id="Ig1tpox1NIaQ3p_4JrHx-763" value="API GW" style="shape=ext;double=1;rounded=1;whiteSpace=wrap;html=1;dashed=1;dashPattern=1 1;glass=0;sketch=1;curveFitting=1;jiggle=2;strokeColor=#C73500;" vertex="1" parent="1">
          <mxGeometry x="169" y="498.82" width="120" height="80" as="geometry" />
        </mxCell>
        <mxCell id="Ig1tpox1NIaQ3p_4JrHx-773" value="" style="shape=image;verticalLabelPosition=bottom;labelBackgroundColor=default;verticalAlign=top;aspect=fixed;imageAspect=0;image=https://images.ctfassets.net/gt6dp23g0g38/5DqlQtFKecFlkqQ8YGDT2p/aa945b648f44dd872e9a1b89f7d203ef/springboot.png;" vertex="1" parent="1">
          <mxGeometry x="576" y="256.35" width="30" height="26.95" as="geometry" />
        </mxCell>
        <mxCell id="Ig1tpox1NIaQ3p_4JrHx-774" value="" style="shape=image;verticalLabelPosition=bottom;labelBackgroundColor=default;verticalAlign=top;aspect=fixed;imageAspect=0;image=https://images.ctfassets.net/gt6dp23g0g38/5DqlQtFKecFlkqQ8YGDT2p/aa945b648f44dd872e9a1b89f7d203ef/springboot.png;" vertex="1" parent="1">
          <mxGeometry x="756.06" y="687" width="30" height="26.95" as="geometry" />
        </mxCell>
        <mxCell id="Ig1tpox1NIaQ3p_4JrHx-776" value="" style="shape=image;verticalLabelPosition=bottom;labelBackgroundColor=default;verticalAlign=top;aspect=fixed;imageAspect=0;image=https://images.ctfassets.net/gt6dp23g0g38/5DqlQtFKecFlkqQ8YGDT2p/aa945b648f44dd872e9a1b89f7d203ef/springboot.png;" vertex="1" parent="1">
          <mxGeometry x="572" y="827" width="30" height="26.95" as="geometry" />
        </mxCell>
        <mxCell id="Ig1tpox1NIaQ3p_4JrHx-782" value="" style="shape=image;verticalLabelPosition=bottom;labelBackgroundColor=default;verticalAlign=top;aspect=fixed;imageAspect=0;image=https://static-00.iconduck.com/assets.00/kafka-icon-2048x935-cvu4503l.png;imageBorder=none;perimeterSpacing=0;" vertex="1" parent="1">
          <mxGeometry x="542" y="429" width="77.75" height="35.5" as="geometry" />
        </mxCell>
        <mxCell id="Ig1tpox1NIaQ3p_4JrHx-786" value="" style="shape=message;html=1;html=1;outlineConnect=0;labelPosition=center;verticalLabelPosition=bottom;align=center;verticalAlign=top;container=0;" vertex="1" parent="1">
          <mxGeometry x="622.5" y="440" width="27" height="18" as="geometry" />
        </mxCell>
        <mxCell id="Ig1tpox1NIaQ3p_4JrHx-799" value="/product" style="text;html=1;align=center;verticalAlign=middle;whiteSpace=wrap;rounded=0;fontSize=18;fontStyle=7;fontFamily=Courier New;" vertex="1" parent="1">
          <mxGeometry x="535" y="505.75000000000006" width="96" height="30" as="geometry" />
        </mxCell>
        <mxCell id="Ig1tpox1NIaQ3p_4JrHx-803" value="/order" style="text;html=1;align=center;verticalAlign=middle;whiteSpace=wrap;rounded=0;fontSize=18;fontStyle=7;fontFamily=Courier New;" vertex="1" parent="1">
          <mxGeometry x="631" y="683.95" width="96" height="30" as="geometry" />
        </mxCell>
        <mxCell id="Ig1tpox1NIaQ3p_4JrHx-804" value="/customer" style="text;html=1;align=center;verticalAlign=middle;whiteSpace=wrap;rounded=0;fontSize=18;fontStyle=7;fontFamily=Courier New;" vertex="1" parent="1">
          <mxGeometry x="455" y="823.95" width="96" height="30" as="geometry" />
        </mxCell>
        <mxCell id="Ig1tpox1NIaQ3p_4JrHx-810" value="/image" style="text;html=1;align=center;verticalAlign=middle;whiteSpace=wrap;rounded=0;fontSize=18;fontStyle=7;fontFamily=Courier New;" vertex="1" parent="1">
          <mxGeometry x="468" y="263" width="96" height="30" as="geometry" />
        </mxCell>
        <mxCell id="Ig1tpox1NIaQ3p_4JrHx-817" value="" style="endArrow=classic;html=1;rounded=0;entryX=1;entryY=0.75;entryDx=0;entryDy=0;exitX=0.25;exitY=0;exitDx=0;exitDy=0;pointerEvents=0;strokeColor=#3333FF;strokeWidth=3;align=center;verticalAlign=top;fontFamily=Helvetica;fontSize=12;fontColor=default;labelBackgroundColor=default;flowAnimation=1;fillColor=none;gradientColor=none;" edge="1" parent="1" source="Ig1tpox1NIaQ3p_4JrHx-715" target="Ig1tpox1NIaQ3p_4JrHx-714">
          <mxGeometry width="50" height="50" relative="1" as="geometry">
            <mxPoint x="798" y="456" as="sourcePoint" />
            <mxPoint x="888" y="535" as="targetPoint" />
            <Array as="points">
              <mxPoint x="782" y="315" />
            </Array>
          </mxGeometry>
        </mxCell>
        <mxCell id="Ig1tpox1NIaQ3p_4JrHx-827" value="" style="endArrow=classic;html=1;rounded=0;entryX=0.5;entryY=1;entryDx=0;entryDy=0;exitX=0;exitY=0.5;exitDx=0;exitDy=0;exitPerimeter=0;strokeColor=#2D7600;strokeWidth=3;align=center;verticalAlign=middle;fontFamily=Helvetica;fontSize=11;fontColor=default;labelBackgroundColor=default;flowAnimation=1;" edge="1" parent="1" source="Ig1tpox1NIaQ3p_4JrHx-723" target="Ig1tpox1NIaQ3p_4JrHx-714">
          <mxGeometry relative="1" as="geometry">
            <mxPoint x="640" y="396" as="sourcePoint" />
            <mxPoint x="714" y="519" as="targetPoint" />
          </mxGeometry>
        </mxCell>
        <mxCell id="Ig1tpox1NIaQ3p_4JrHx-828" value="" style="shape=message;html=1;outlineConnect=0;rounded=0;strokeColor=#2D7600;strokeWidth=3;align=center;verticalAlign=middle;fontFamily=Helvetica;fontSize=11;fontColor=default;labelBackgroundColor=default;" vertex="1" parent="Ig1tpox1NIaQ3p_4JrHx-827">
          <mxGeometry width="20" height="14" relative="1" as="geometry">
            <mxPoint x="-10" y="-7" as="offset" />
          </mxGeometry>
        </mxCell>
        <mxCell id="Ig1tpox1NIaQ3p_4JrHx-829" value="" style="endArrow=classic;html=1;rounded=0;entryX=1;entryY=0.5;entryDx=0;entryDy=0;exitX=0.5;exitY=1;exitDx=0;exitDy=0;pointerEvents=0;strokeColor=#3333FF;strokeWidth=3;align=center;verticalAlign=top;fontFamily=Helvetica;fontSize=12;fontColor=default;labelBackgroundColor=default;flowAnimation=1;fillColor=none;gradientColor=none;" edge="1" parent="1" source="Ig1tpox1NIaQ3p_4JrHx-717" target="Ig1tpox1NIaQ3p_4JrHx-718">
          <mxGeometry width="50" height="50" relative="1" as="geometry">
            <mxPoint x="885" y="822" as="sourcePoint" />
            <mxPoint x="977" y="684" as="targetPoint" />
            <Array as="points">
              <mxPoint x="812" y="858" />
            </Array>
          </mxGeometry>
        </mxCell>
        <mxCell id="Ig1tpox1NIaQ3p_4JrHx-830" value="" style="endArrow=classic;html=1;rounded=0;entryX=0.5;entryY=1;entryDx=0;entryDy=0;exitX=0.5;exitY=0;exitDx=0;exitDy=0;pointerEvents=0;strokeColor=#3333FF;strokeWidth=3;align=center;verticalAlign=top;fontFamily=Helvetica;fontSize=12;fontColor=default;labelBackgroundColor=default;flowAnimation=1;fillColor=none;gradientColor=none;" edge="1" parent="1" source="Ig1tpox1NIaQ3p_4JrHx-717" target="Ig1tpox1NIaQ3p_4JrHx-715">
          <mxGeometry width="50" height="50" relative="1" as="geometry">
            <mxPoint x="927" y="734" as="sourcePoint" />
            <mxPoint x="977" y="684" as="targetPoint" />
          </mxGeometry>
        </mxCell>
        <mxCell id="Ig1tpox1NIaQ3p_4JrHx-831" value="" style="endArrow=classic;html=1;rounded=0;entryX=0;entryY=0.5;entryDx=0;entryDy=0;exitX=0.5;exitY=0;exitDx=0;exitDy=0;pointerEvents=0;strokeColor=#3333FF;strokeWidth=3;align=center;verticalAlign=top;fontFamily=Helvetica;fontSize=12;fontColor=default;labelBackgroundColor=default;flowAnimation=1;fillColor=none;gradientColor=none;" edge="1" parent="1" source="Ig1tpox1NIaQ3p_4JrHx-717" target="Ig1tpox1NIaQ3p_4JrHx-719">
          <mxGeometry width="50" height="50" relative="1" as="geometry">
            <mxPoint x="929" y="708" as="sourcePoint" />
            <mxPoint x="979" y="658" as="targetPoint" />
            <Array as="points">
              <mxPoint x="857" y="615" />
            </Array>
          </mxGeometry>
        </mxCell>
        <mxCell id="Ig1tpox1NIaQ3p_4JrHx-832" value="" style="endArrow=classic;html=1;rounded=0;entryX=0;entryY=0.5;entryDx=0;entryDy=0;exitX=1;exitY=0.5;exitDx=0;exitDy=0;strokeColor=default;strokeWidth=3;align=center;verticalAlign=middle;fontFamily=Helvetica;fontSize=11;fontColor=default;labelBackgroundColor=default;flowAnimation=1;shape=link;" edge="1" parent="1" source="Ig1tpox1NIaQ3p_4JrHx-714" target="Ig1tpox1NIaQ3p_4JrHx-823">
          <mxGeometry width="50" height="50" relative="1" as="geometry">
            <mxPoint x="933" y="667" as="sourcePoint" />
            <mxPoint x="983" y="617" as="targetPoint" />
          </mxGeometry>
        </mxCell>
        <mxCell id="Ig1tpox1NIaQ3p_4JrHx-834" value="" style="group" vertex="1" connectable="0" parent="1">
          <mxGeometry x="991" y="513.3" width="50.120000000000005" height="57.64852490606316" as="geometry" />
        </mxCell>
        <mxCell id="Ig1tpox1NIaQ3p_4JrHx-835" value="" style="shape=image;verticalLabelPosition=bottom;labelBackgroundColor=default;verticalAlign=top;aspect=fixed;imageAspect=0;image=https://upload.wikimedia.org/wikipedia/commons/thumb/b/ba/Database-postgres.svg/1448px-Database-postgres.svg.png;container=0;" vertex="1" parent="Ig1tpox1NIaQ3p_4JrHx-834">
          <mxGeometry x="15.99735211811253" width="36.12264788188748" height="51.04120428447361" as="geometry" />
        </mxCell>
        <mxCell id="Ig1tpox1NIaQ3p_4JrHx-836" value="" style="sketch=0;aspect=fixed;html=1;points=[];align=center;image;fontSize=12;image=img/lib/mscae/Docker.svg;fillColor=none;container=0;" vertex="1" parent="Ig1tpox1NIaQ3p_4JrHx-834">
          <mxGeometry y="36.67969348659003" width="25.571745633503813" height="20.968831419473126" as="geometry" />
        </mxCell>
        <mxCell id="Ig1tpox1NIaQ3p_4JrHx-837" value="" style="group" vertex="1" connectable="0" parent="1">
          <mxGeometry x="746" y="908" width="50.120000000000005" height="57.64852490606316" as="geometry" />
        </mxCell>
        <mxCell id="Ig1tpox1NIaQ3p_4JrHx-838" value="" style="shape=image;verticalLabelPosition=bottom;labelBackgroundColor=default;verticalAlign=top;aspect=fixed;imageAspect=0;image=https://upload.wikimedia.org/wikipedia/commons/thumb/b/ba/Database-postgres.svg/1448px-Database-postgres.svg.png;container=0;" vertex="1" parent="Ig1tpox1NIaQ3p_4JrHx-837">
          <mxGeometry x="15.99735211811253" width="36.12264788188748" height="51.04120428447361" as="geometry" />
        </mxCell>
        <mxCell id="Ig1tpox1NIaQ3p_4JrHx-839" value="" style="sketch=0;aspect=fixed;html=1;points=[];align=center;image;fontSize=12;image=img/lib/mscae/Docker.svg;fillColor=none;container=0;" vertex="1" parent="Ig1tpox1NIaQ3p_4JrHx-837">
          <mxGeometry y="36.67969348659003" width="25.571745633503813" height="20.968831419473126" as="geometry" />
        </mxCell>
        <mxCell id="Ig1tpox1NIaQ3p_4JrHx-840" value="" style="group" vertex="1" connectable="0" parent="1">
          <mxGeometry x="910" y="816" width="50.120000000000005" height="57.64852490606316" as="geometry" />
        </mxCell>
        <mxCell id="Ig1tpox1NIaQ3p_4JrHx-841" value="" style="shape=image;verticalLabelPosition=bottom;labelBackgroundColor=default;verticalAlign=top;aspect=fixed;imageAspect=0;image=https://upload.wikimedia.org/wikipedia/commons/thumb/b/ba/Database-postgres.svg/1448px-Database-postgres.svg.png;container=0;" vertex="1" parent="Ig1tpox1NIaQ3p_4JrHx-840">
          <mxGeometry x="15.99735211811253" width="36.12264788188748" height="51.04120428447361" as="geometry" />
        </mxCell>
        <mxCell id="Ig1tpox1NIaQ3p_4JrHx-842" value="" style="sketch=0;aspect=fixed;html=1;points=[];align=center;image;fontSize=12;image=img/lib/mscae/Docker.svg;fillColor=none;container=0;" vertex="1" parent="Ig1tpox1NIaQ3p_4JrHx-840">
          <mxGeometry y="36.67969348659003" width="25.571745633503813" height="20.968831419473126" as="geometry" />
        </mxCell>
        <mxCell id="Ig1tpox1NIaQ3p_4JrHx-843" value="" style="endArrow=classic;html=1;rounded=0;exitX=0.75;exitY=1;exitDx=0;exitDy=0;entryX=0;entryY=0.5;entryDx=0;entryDy=0;strokeColor=default;strokeWidth=3;align=center;verticalAlign=middle;fontFamily=Helvetica;fontSize=11;fontColor=default;labelBackgroundColor=default;flowAnimation=1;shape=link;" edge="1" parent="1" source="Ig1tpox1NIaQ3p_4JrHx-717" target="Ig1tpox1NIaQ3p_4JrHx-841">
          <mxGeometry width="50" height="50" relative="1" as="geometry">
            <mxPoint x="713" y="962" as="sourcePoint" />
            <mxPoint x="763" y="912" as="targetPoint" />
            <Array as="points">
              <mxPoint x="842" y="842" />
            </Array>
          </mxGeometry>
        </mxCell>
        <mxCell id="Ig1tpox1NIaQ3p_4JrHx-844" value="" style="endArrow=classic;html=1;rounded=0;entryX=0;entryY=0.5;entryDx=0;entryDy=0;exitX=1;exitY=0.5;exitDx=0;exitDy=0;strokeColor=default;strokeWidth=3;align=center;verticalAlign=middle;fontFamily=Helvetica;fontSize=11;fontColor=default;labelBackgroundColor=default;flowAnimation=1;shape=link;" edge="1" parent="1" source="Ig1tpox1NIaQ3p_4JrHx-715" target="Ig1tpox1NIaQ3p_4JrHx-835">
          <mxGeometry width="50" height="50" relative="1" as="geometry">
            <mxPoint x="893" y="705" as="sourcePoint" />
            <mxPoint x="943" y="655" as="targetPoint" />
          </mxGeometry>
        </mxCell>
        <mxCell id="Ig1tpox1NIaQ3p_4JrHx-845" value="Message Broker" style="shape=cylinder3;whiteSpace=wrap;html=1;boundedLbl=1;backgroundOutline=1;size=15;rotation=90;horizontal=0;verticalAlign=top;" vertex="1" parent="1">
          <mxGeometry x="1277" y="752" width="52" height="139" as="geometry" />
        </mxCell>
        <mxCell id="Ig1tpox1NIaQ3p_4JrHx-850" value="" style="endArrow=classic;html=1;rounded=0;exitX=0.5;exitY=0;exitDx=0;exitDy=0;strokeColor=default;strokeWidth=3;align=center;verticalAlign=middle;fontFamily=Helvetica;fontSize=11;fontColor=default;labelBackgroundColor=default;flowAnimation=1;shape=link;" edge="1" parent="1" source="Ig1tpox1NIaQ3p_4JrHx-719">
          <mxGeometry width="50" height="50" relative="1" as="geometry">
            <mxPoint x="1093" y="719" as="sourcePoint" />
            <mxPoint x="1203" y="454" as="targetPoint" />
          </mxGeometry>
        </mxCell>
        <mxCell id="Ig1tpox1NIaQ3p_4JrHx-851" value="" style="endArrow=classic;html=1;rounded=0;exitX=0.5;exitY=1;exitDx=0;exitDy=0;entryX=0;entryY=0.5;entryDx=0;entryDy=0;shape=link;strokeColor=default;strokeWidth=3;align=center;verticalAlign=middle;fontFamily=Helvetica;fontSize=11;fontColor=default;labelBackgroundColor=default;flowAnimation=1;" edge="1" parent="1" source="Ig1tpox1NIaQ3p_4JrHx-718" target="Ig1tpox1NIaQ3p_4JrHx-838">
          <mxGeometry width="50" height="50" relative="1" as="geometry">
            <mxPoint x="1055" y="885" as="sourcePoint" />
            <mxPoint x="1105" y="835" as="targetPoint" />
            <Array as="points">
              <mxPoint x="627" y="934" />
            </Array>
          </mxGeometry>
        </mxCell>
        <mxCell id="Ig1tpox1NIaQ3p_4JrHx-852" value="" style="endArrow=classic;html=1;rounded=0;entryX=0.5;entryY=1;entryDx=0;entryDy=0;exitX=0.5;exitY=0;exitDx=0;exitDy=0;strokeColor=default;strokeWidth=3;align=center;verticalAlign=middle;fontFamily=Helvetica;fontSize=11;fontColor=default;labelBackgroundColor=default;flowAnimation=1;shape=link;" edge="1" parent="1" source="Ig1tpox1NIaQ3p_4JrHx-720" target="Ig1tpox1NIaQ3p_4JrHx-435">
          <mxGeometry width="50" height="50" relative="1" as="geometry">
            <mxPoint x="1100" y="676" as="sourcePoint" />
            <mxPoint x="1150" y="626" as="targetPoint" />
          </mxGeometry>
        </mxCell>
        <mxCell id="Ig1tpox1NIaQ3p_4JrHx-853" value="" style="endArrow=classic;html=1;rounded=0;entryX=0.5;entryY=0;entryDx=0;entryDy=0;exitX=0.5;exitY=1;exitDx=0;exitDy=0;strokeColor=default;strokeWidth=3;align=center;verticalAlign=middle;fontFamily=Helvetica;fontSize=11;fontColor=default;labelBackgroundColor=default;flowAnimation=1;shape=link;" edge="1" parent="1" source="Ig1tpox1NIaQ3p_4JrHx-720" target="Ig1tpox1NIaQ3p_4JrHx-437">
          <mxGeometry width="50" height="50" relative="1" as="geometry">
            <mxPoint x="1100" y="676" as="sourcePoint" />
            <mxPoint x="1150" y="626" as="targetPoint" />
          </mxGeometry>
        </mxCell>
        <mxCell id="Ig1tpox1NIaQ3p_4JrHx-854" value="" style="shape=image;verticalLabelPosition=bottom;labelBackgroundColor=default;verticalAlign=top;aspect=fixed;imageAspect=0;image=https://static-00.iconduck.com/assets.00/kafka-icon-2048x935-cvu4503l.png;imageBorder=none;perimeterSpacing=0;" vertex="1" parent="1">
          <mxGeometry x="1263" y="849" width="77.75" height="35.5" as="geometry" />
        </mxCell>
        <mxCell id="Ig1tpox1NIaQ3p_4JrHx-855" value="" style="shape=message;html=1;html=1;outlineConnect=0;labelPosition=center;verticalLabelPosition=bottom;align=center;verticalAlign=top;container=0;" vertex="1" parent="1">
          <mxGeometry x="1284" y="821" width="27" height="18" as="geometry" />
        </mxCell>
        <mxCell id="Ig1tpox1NIaQ3p_4JrHx-859" value="" style="endArrow=classic;html=1;rounded=0;exitX=1;exitY=0.5;exitDx=0;exitDy=0;entryX=0.5;entryY=1;entryDx=0;entryDy=0;entryPerimeter=0;strokeColor=#2D7600;strokeWidth=3;align=center;verticalAlign=middle;fontFamily=Helvetica;fontSize=11;fontColor=default;labelBackgroundColor=default;flowAnimation=1;" edge="1" parent="1" source="Ig1tpox1NIaQ3p_4JrHx-717" target="Ig1tpox1NIaQ3p_4JrHx-845">
          <mxGeometry relative="1" as="geometry">
            <mxPoint x="1020" y="838" as="sourcePoint" />
            <mxPoint x="1120" y="838" as="targetPoint" />
            <Array as="points">
              <mxPoint x="1035" y="821" />
            </Array>
          </mxGeometry>
        </mxCell>
        <mxCell id="Ig1tpox1NIaQ3p_4JrHx-860" value="" style="shape=message;html=1;outlineConnect=0;rounded=0;strokeColor=#2D7600;strokeWidth=3;align=center;verticalAlign=middle;fontFamily=Helvetica;fontSize=11;fontColor=default;labelBackgroundColor=default;" vertex="1" parent="Ig1tpox1NIaQ3p_4JrHx-859">
          <mxGeometry width="20" height="14" relative="1" as="geometry">
            <mxPoint x="-10" y="-7" as="offset" />
          </mxGeometry>
        </mxCell>
        <mxCell id="Ig1tpox1NIaQ3p_4JrHx-865" value="" style="endArrow=classic;html=1;rounded=0;exitX=0.25;exitY=1;exitDx=0;exitDy=0;entryX=0.5;entryY=1;entryDx=0;entryDy=0;entryPerimeter=0;strokeColor=#2D7600;strokeWidth=3;flowAnimation=1;align=center;verticalAlign=middle;fontFamily=Helvetica;fontSize=11;fontColor=default;labelBackgroundColor=default;" edge="1" parent="1" source="Ig1tpox1NIaQ3p_4JrHx-719" target="Ig1tpox1NIaQ3p_4JrHx-845">
          <mxGeometry relative="1" as="geometry">
            <mxPoint x="1155" y="740" as="sourcePoint" />
            <mxPoint x="1255" y="740" as="targetPoint" />
            <Array as="points">
              <mxPoint x="1173" y="740" />
            </Array>
          </mxGeometry>
        </mxCell>
        <mxCell id="Ig1tpox1NIaQ3p_4JrHx-866" value="" style="shape=message;html=1;outlineConnect=0;rounded=0;strokeColor=#2D7600;strokeWidth=3;align=center;verticalAlign=middle;fontFamily=Helvetica;fontSize=11;fontColor=default;labelBackgroundColor=default;" vertex="1" parent="Ig1tpox1NIaQ3p_4JrHx-865">
          <mxGeometry width="20" height="14" relative="1" as="geometry">
            <mxPoint x="-10" y="-7" as="offset" />
          </mxGeometry>
        </mxCell>
        <mxCell id="Ig1tpox1NIaQ3p_4JrHx-867" value="" style="endArrow=classic;html=1;rounded=0;entryX=0;entryY=0.5;entryDx=0;entryDy=0;exitX=0.5;exitY=0;exitDx=0;exitDy=0;exitPerimeter=0;strokeColor=#2D7600;strokeWidth=3;align=center;verticalAlign=middle;fontFamily=Helvetica;fontSize=11;fontColor=default;labelBackgroundColor=default;flowAnimation=1;" edge="1" parent="1" source="Ig1tpox1NIaQ3p_4JrHx-845" target="Ig1tpox1NIaQ3p_4JrHx-720">
          <mxGeometry relative="1" as="geometry">
            <mxPoint x="1154" y="783" as="sourcePoint" />
            <mxPoint x="1254" y="783" as="targetPoint" />
            <Array as="points">
              <mxPoint x="1370" y="615" />
            </Array>
          </mxGeometry>
        </mxCell>
        <mxCell id="Ig1tpox1NIaQ3p_4JrHx-868" value="" style="shape=message;html=1;outlineConnect=0;rounded=0;strokeColor=#2D7600;strokeWidth=3;align=center;verticalAlign=middle;fontFamily=Helvetica;fontSize=11;fontColor=default;labelBackgroundColor=default;" vertex="1" parent="Ig1tpox1NIaQ3p_4JrHx-867">
          <mxGeometry width="20" height="14" relative="1" as="geometry">
            <mxPoint x="-10" y="-7" as="offset" />
          </mxGeometry>
        </mxCell>
        <mxCell id="Ig1tpox1NIaQ3p_4JrHx-869" value="" style="endArrow=classic;html=1;rounded=0;entryX=0;entryY=0.5;entryDx=0;entryDy=0;exitX=1;exitY=0.5;exitDx=0;exitDy=0;strokeColor=#C73500;strokeWidth=3;align=center;verticalAlign=middle;fontFamily=Helvetica;fontSize=11;fontColor=default;labelBackgroundColor=default;flowAnimation=1;" edge="1" parent="1" source="Ig1tpox1NIaQ3p_4JrHx-763" target="Ig1tpox1NIaQ3p_4JrHx-714">
          <mxGeometry width="50" height="50" relative="1" as="geometry">
            <mxPoint x="629" y="652" as="sourcePoint" />
            <mxPoint x="679" y="602" as="targetPoint" />
            <Array as="points">
              <mxPoint x="289" y="295" />
            </Array>
          </mxGeometry>
        </mxCell>
        <mxCell id="Ig1tpox1NIaQ3p_4JrHx-870" value="" style="endArrow=classic;html=1;rounded=0;entryX=0;entryY=0.5;entryDx=0;entryDy=0;exitX=1;exitY=0.5;exitDx=0;exitDy=0;strokeColor=#C73500;strokeWidth=3;align=center;verticalAlign=middle;fontFamily=Helvetica;fontSize=11;fontColor=default;labelBackgroundColor=default;flowAnimation=1;" edge="1" parent="1" source="Ig1tpox1NIaQ3p_4JrHx-763" target="Ig1tpox1NIaQ3p_4JrHx-715">
          <mxGeometry width="50" height="50" relative="1" as="geometry">
            <mxPoint x="629" y="652" as="sourcePoint" />
            <mxPoint x="679" y="602" as="targetPoint" />
          </mxGeometry>
        </mxCell>
        <mxCell id="Ig1tpox1NIaQ3p_4JrHx-871" value="" style="endArrow=classic;html=1;rounded=0;entryX=1;entryY=0.5;entryDx=0;entryDy=0;entryPerimeter=0;exitX=0;exitY=0;exitDx=0;exitDy=0;strokeColor=#2D7600;strokeWidth=3;align=center;verticalAlign=middle;fontFamily=Helvetica;fontSize=11;fontColor=default;labelBackgroundColor=default;flowAnimation=1;" edge="1" parent="1" source="Ig1tpox1NIaQ3p_4JrHx-715" target="Ig1tpox1NIaQ3p_4JrHx-723">
          <mxGeometry relative="1" as="geometry">
            <mxPoint x="562" y="596" as="sourcePoint" />
            <mxPoint x="662" y="596" as="targetPoint" />
            <Array as="points">
              <mxPoint x="636" y="499" />
            </Array>
          </mxGeometry>
        </mxCell>
        <mxCell id="Ig1tpox1NIaQ3p_4JrHx-872" value="" style="shape=message;html=1;outlineConnect=0;rounded=0;strokeColor=#2D7600;strokeWidth=3;align=center;verticalAlign=middle;fontFamily=Helvetica;fontSize=11;fontColor=default;labelBackgroundColor=default;" vertex="1" parent="Ig1tpox1NIaQ3p_4JrHx-871">
          <mxGeometry width="20" height="14" relative="1" as="geometry">
            <mxPoint x="-10" y="-7" as="offset" />
          </mxGeometry>
        </mxCell>
        <mxCell id="Ig1tpox1NIaQ3p_4JrHx-873" value="" style="endArrow=classic;html=1;rounded=0;entryX=0;entryY=0.5;entryDx=0;entryDy=0;exitX=1;exitY=0.5;exitDx=0;exitDy=0;strokeColor=#C73500;strokeWidth=3;align=center;verticalAlign=middle;fontFamily=Helvetica;fontSize=11;fontColor=default;labelBackgroundColor=default;flowAnimation=1;" edge="1" parent="1" source="Ig1tpox1NIaQ3p_4JrHx-763" target="Ig1tpox1NIaQ3p_4JrHx-717">
          <mxGeometry width="50" height="50" relative="1" as="geometry">
            <mxPoint x="659" y="705" as="sourcePoint" />
            <mxPoint x="709" y="655" as="targetPoint" />
            <Array as="points">
              <mxPoint x="289" y="720" />
            </Array>
          </mxGeometry>
        </mxCell>
        <mxCell id="Ig1tpox1NIaQ3p_4JrHx-874" value="" style="endArrow=classic;html=1;rounded=0;entryX=0;entryY=0.5;entryDx=0;entryDy=0;exitX=1;exitY=0.5;exitDx=0;exitDy=0;strokeColor=#C73500;strokeWidth=3;align=center;verticalAlign=middle;fontFamily=Helvetica;fontSize=11;fontColor=default;labelBackgroundColor=default;flowAnimation=1;" edge="1" parent="1" source="Ig1tpox1NIaQ3p_4JrHx-763" target="Ig1tpox1NIaQ3p_4JrHx-718">
          <mxGeometry width="50" height="50" relative="1" as="geometry">
            <mxPoint x="324" y="564" as="sourcePoint" />
            <mxPoint x="709" y="655" as="targetPoint" />
            <Array as="points">
              <mxPoint x="289" y="858" />
            </Array>
          </mxGeometry>
        </mxCell>
        <mxCell id="Ig1tpox1NIaQ3p_4JrHx-878" value="REST" style="text;html=1;align=center;verticalAlign=middle;whiteSpace=wrap;rounded=0;strokeWidth=1;fontSize=18;spacingTop=0;fontStyle=1" vertex="1" parent="1">
          <mxGeometry x="726.06" y="821" width="60" height="30" as="geometry" />
        </mxCell>
        <mxCell id="Ig1tpox1NIaQ3p_4JrHx-879" value="REST" style="text;html=1;align=center;verticalAlign=middle;whiteSpace=wrap;rounded=0;strokeWidth=1;fontSize=18;spacingTop=0;fontStyle=1" vertex="1" parent="1">
          <mxGeometry x="897" y="582" width="60" height="30" as="geometry" />
        </mxCell>
        <mxCell id="Ig1tpox1NIaQ3p_4JrHx-880" value="REST" style="text;html=1;align=center;verticalAlign=middle;whiteSpace=wrap;rounded=0;strokeWidth=1;fontSize=18;spacingTop=0;fontStyle=1;rotation=-90;" vertex="1" parent="1">
          <mxGeometry x="761" y="621" width="66" height="30" as="geometry" />
        </mxCell>
        <mxCell id="Ig1tpox1NIaQ3p_4JrHx-881" value="REST" style="text;html=1;align=center;verticalAlign=middle;whiteSpace=wrap;rounded=0;strokeWidth=1;fontSize=18;spacingTop=0;fontStyle=1;rotation=-90;" vertex="1" parent="1">
          <mxGeometry x="768" y="380" width="69" height="30" as="geometry" />
        </mxCell>
        <mxCell id="Ig1tpox1NIaQ3p_4JrHx-883" value="ASYNC" style="text;html=1;align=center;verticalAlign=middle;whiteSpace=wrap;rounded=0;fontSize=18;fontStyle=1" vertex="1" parent="1">
          <mxGeometry x="1128" y="781" width="60" height="30" as="geometry" />
        </mxCell>
        <mxCell id="Ig1tpox1NIaQ3p_4JrHx-884" value="ASYNC" style="text;html=1;align=center;verticalAlign=middle;whiteSpace=wrap;rounded=0;fontSize=18;fontStyle=1;rotation=-90;" vertex="1" parent="1">
          <mxGeometry x="1325" y="730" width="60" height="30" as="geometry" />
        </mxCell>
        <mxCell id="Ig1tpox1NIaQ3p_4JrHx-885" value="ASYNC" style="text;html=1;align=center;verticalAlign=middle;whiteSpace=wrap;rounded=0;fontSize=18;fontStyle=1" vertex="1" parent="1">
          <mxGeometry x="696" y="462" width="60" height="30" as="geometry" />
        </mxCell>
        <mxCell id="Ig1tpox1NIaQ3p_4JrHx-886" value="" style="endArrow=classic;html=1;rounded=0;exitX=0.5;exitY=0;exitDx=0;exitDy=0;entryX=0.348;entryY=1.001;entryDx=0;entryDy=0;entryPerimeter=0;strokeColor=default;strokeWidth=3;align=center;verticalAlign=middle;fontFamily=Helvetica;fontSize=11;fontColor=default;labelBackgroundColor=default;flowAnimation=1;" edge="1" parent="1" source="Ig1tpox1NIaQ3p_4JrHx-444" target="Ig1tpox1NIaQ3p_4JrHx-552">
          <mxGeometry width="50" height="50" relative="1" as="geometry">
            <mxPoint x="1062" y="940" as="sourcePoint" />
            <mxPoint x="1112" y="890" as="targetPoint" />
          </mxGeometry>
        </mxCell>
        <mxCell id="Ig1tpox1NIaQ3p_4JrHx-888" value="" style="endArrow=classic;html=1;rounded=0;entryX=0.651;entryY=1.002;entryDx=0;entryDy=0;entryPerimeter=0;exitX=0.5;exitY=0;exitDx=0;exitDy=0;strokeColor=default;strokeWidth=3;align=center;verticalAlign=middle;fontFamily=Helvetica;fontSize=11;fontColor=default;labelBackgroundColor=default;flowAnimation=1;" edge="1" parent="1" source="Ig1tpox1NIaQ3p_4JrHx-445" target="Ig1tpox1NIaQ3p_4JrHx-552">
          <mxGeometry width="50" height="50" relative="1" as="geometry">
            <mxPoint x="1062" y="940" as="sourcePoint" />
            <mxPoint x="1112" y="890" as="targetPoint" />
          </mxGeometry>
        </mxCell>
        <mxCell id="Ig1tpox1NIaQ3p_4JrHx-889" value="" style="rounded=1;whiteSpace=wrap;html=1;fillColor=none;strokeWidth=3;" vertex="1" parent="1">
          <mxGeometry x="328" y="146" width="1454" height="956" as="geometry" />
        </mxCell>
      </root>
    </mxGraphModel>
  </diagram>
</mxfile>
